:SAMPLES-PER-SECOND 30
:FULLY-SPECIFIED
:DEGREES
88
root  -1.97699 40.6175 -0.227924 -138.985 -87.3503 142.561
RightUpLeg  -6.65034 -1.88089 -2.2875
RightLeg  8.99508 -16.8841 -2.4638
RightFoot  -4.22615 -0.201864 2.7826
RightToes  -3.11842e-008 1.75238e-005 3.56266e-009
Spine  5.00445 -9.17277 -10.7637
Spine1  0.0180404 -11.8532 13.5332
HEad  -20.1544 26.8539 -17.2476
LeftShoulder1  3.87043 -10.7765 -20.6865
LeftArm  71.1015 -71.1168 -115.832
LeftForeArm  87.172 -77.8622 -41.5729
LeftHand  -3.33771 -7.75217 29.2021
RightShoulder  3.07557 9.57074 16.8946
RightArm  -70.3547 32.2424 3.84398
RightForeArm  150.995 51.9483 165.738
RightHand  -2.72455 12.6904 -17.7103
LeftUpLeg  -9.10644 6.68247 1.36442
LeftLeg  12.9642 8.60382 1.51952
LeftFoot  -6.34626 0.281231 -5.5648
LeftToes  4.7713e-008 1.46693e-008 1.32589e-009
89
root  -1.82232 40.6467 -0.248373 -135.048 -87.1838 138.66
RightUpLeg  -6.94979 -1.80877 -2.43871
RightLeg  8.94197 -16.8337 -2.59008
RightFoot  -3.81077 -0.203365 2.69404
RightToes  -3.11842e-008 1.75238e-005 3.56266e-009
Spine  5.64087 -8.32975 -8.96036
Spine1  0.330415 -10.5272 10.3774
HEad  -19.6822 25.087 -15.7062
LeftShoulder1  3.6197 -10.7489 -18.8675
LeftArm  68.9421 -69.8741 -115.406
LeftForeArm  85.0097 -77.3175 -39.3389
LeftHand  -3.3663 -7.96044 29.005
RightShoulder  3.08671 8.49807 19.2657
RightArm  -67.8046 33.2218 4.18153
RightForeArm  151.733 52.6673 165.448
RightHand  -2.93293 13.4371 -18.3003
LeftUpLeg  -8.71715 5.51032 1.51842
LeftLeg  11.3548 10.5344 1.12915
LeftFoot  -5.35797 0.298508 -5.12522
LeftToes  4.7713e-008 1.46693e-008 1.32589e-009
90
root  -1.8068 40.6589 -0.274122 -140.681 -87.1903 144.33
RightUpLeg  -6.89278 -1.54543 -2.15697
RightLeg  8.63122 -16.8477 -2.51505
RightFoot  -3.52948 -0.205716 2.65989
RightToes  -3.11842e-008 1.75238e-005 3.56266e-009
Spine  6.09885 -7.67179 -7.86392
Spine1  -0.059501 -9.55754 8.82878
HEad  -18.7149 24.3332 -15.0942
LeftShoulder1  3.53117 -10.8969 -17.9209
LeftArm  66.286 -68.7095 -113.485
LeftForeArm  83.2454 -76.7354 -37.1268
LeftHand  -3.32792 -7.79189 29.0378
RightShoulder  3.06536 7.74816 20.9248
RightArm  -64.4532 33.5199 5.15364
RightForeArm  150.858 53.2714 165.083
RightHand  -2.79062 13.4914 -17.395
LeftUpLeg  -7.51069 3.96992 2.24958
LeftLeg  8.73928 12.9111 0.345513
LeftFoot  -2.68201 0.372156 -4.68736
LeftToes  4.7713e-008 1.46693e-008 1.32589e-009
91
root  -1.85307 40.6843 -0.296822 -148.792 -87.16 152.444
RightUpLeg  -6.5255 -1.20003 -1.80117
RightLeg  7.95129 -16.9248 -2.29788
RightFoot  -3.21953 -0.203946 2.56145
RightToes  -3.11842e-008 1.75238e-005 3.56266e-009
Spine  6.1084 -7.43095 -7.62951
Spine1  -0.269809 -9.13537 7.92285
HEad  -17.2241 24.2556 -14.3077
LeftShoulder1  3.45167 -10.9605 -17.2068
LeftArm  64.6438 -67.9517 -111.765
LeftForeArm  83.3503 -76.3973 -35.7281
LeftHand  -3.38906 -7.66501 29.8134
RightShoulder  3.05192 7.23008 22.182
RightArm  -60.8434 33.4954 6.07892
RightForeArm  151.405 54.196 164.653
RightHand  -3.00078 13.8369 -18.3361
LeftUpLeg  -6.10004 2.62995 2.80457
LeftLeg  6.26071 14.09 -0.463514
LeftFoot  -2.79842 0.341539 -4.35019
LeftToes  4.7713e-008 1.46693e-008 1.32589e-009
92
root  -1.96634 40.7382 -0.336396 -155.005 -86.8795 158.175
RightUpLeg  -5.39912 -0.768231 -1.4851
RightLeg  6.96861 -16.9522 -2.21792
RightFoot  -2.88945 -0.20585 2.56578
RightToes  -3.11842e-008 1.75238e-005 3.56266e-009
Spine  5.31858 -7.63712 -8.96715
Spine1  0.969755 -9.50805 8.31579
HEad  -16.6729 25.6872 -14.4156
LeftShoulder1  3.42058 -10.6861 -17.4714
LeftArm  65.1838 -67.5969 -111.396
LeftForeArm  82.6881 -75.9286 -34.151
LeftHand  -3.27155 -7.30483 29.6117
RightShoulder  3.17659 7.54759 22.5216
RightArm  -57.7688 33.1681 6.78789
RightForeArm  153.718 54.9874 164.411
RightHand  -3.11232 13.7606 -19.0562
LeftUpLeg  -4.46737 2.14226 3.04055
LeftLeg  4.47238 15.1816 -0.806187
LeftFoot  -2.24889 0.353165 -4.26856
LeftToes  4.7713e-008 1.46693e-008 1.32589e-009
93
root  -2.10064 40.7617 -0.368204 -163.045 -85.682 165.528
RightUpLeg  -4.58764 -0.11172 -1.14512
RightLeg  6.99975 -16.0903 -2.65274
RightFoot  -2.87021 -0.22299 2.82235
RightToes  -3.11842e-008 1.75238e-005 3.56266e-009
Spine  4.74725 -7.65623 -10.7676
Spine1  1.9453 -9.75793 9.15471
HEad  -15.9512 27.4587 -15.1049
LeftShoulder1  3.4365 -10.6257 -17.706
LeftArm  66.6601 -67.1043 -112.19
LeftForeArm  80.5614 -75.0419 -31.7019
LeftHand  -3.38314 -7.17313 30.8583
RightShoulder  3.05295 7.18317 22.3344
RightArm  -56.0536 33.5294 7.85587
RightForeArm  155.555 55.444 164.308
RightHand  -3.27297 13.8397 -19.9253
LeftUpLeg  -2.83903 2.4331 3.21635
LeftLeg  3.58514 16.1591 -0.952572
LeftFoot  -2.26267 0.394789 -4.80472
LeftToes  4.7713e-008 1.46693e-008 1.32589e-009
94
root  -2.28542 40.7598 -0.366714 -169.485 -83.9784 171.394
RightUpLeg  -3.98723 0.345597 -0.85591
RightLeg  7.20053 -14.7182 -2.84105
RightFoot  -3.01799 -0.231181 2.95461
RightToes  -3.11842e-008 1.75238e-005 3.56266e-009
Spine  4.65916 -7.95511 -11.9331
Spine1  1.34906 -10.0536 9.44961
HEad  -14.0979 29.0334 -16.2046
LeftShoulder1  3.53419 -11.0156 -17.7221
LeftArm  65.7902 -66.2366 -111.876
LeftForeArm  79.3279 -74.1972 -29.577
LeftHand  -3.58601 -7.34728 32.1849
RightShoulder  3.17591 7.40834 22.9087
RightArm  -56.8181 33.2095 7.30995
RightForeArm  160.402 55.7807 164.513
RightHand  -3.20641 13.4972 -19.8745
LeftUpLeg  -1.51027 2.90294 3.50194
LeftLeg  3.45034 17.3163 -1.00309
LeftFoot  -2.80286 0.419316 -5.38904
LeftToes  4.7713e-008 1.46693e-008 1.32589e-009
95
root  -2.51239 40.7407 -0.346597 -175.067 -81.6674 176.568
RightUpLeg  -3.38658 0.943063 -0.408789
RightLeg  7.12949 -12.8813 -2.81833
RightFoot  -3.24052 -0.237866 3.07675
RightToes  -3.11842e-008 1.75238e-005 3.56266e-009
Spine  3.85911 -8.58254 -12.5446
Spine1  1.19108 -10.5645 9.29759
HEad  -12.7931 32.7989 -17.6544
LeftShoulder1  3.72988 -11.5072 -18.2728
LeftArm  65.6459 -66.0467 -111.941
LeftForeArm  80.4165 -73.7648 -28.3405
LeftHand  -3.57898 -6.79217 33.5153
RightShoulder  3.09546 7.09651 23.0115
RightArm  -56.9801 33.8245 6.79217
RightForeArm  164.185 56.1422 164.623
RightHand  -3.1855 13.4833 -19.7626
LeftUpLeg  -0.494945 3.32636 3.8386
LeftLeg  3.92461 19.0878 -0.668725
LeftFoot  -3.53624 0.399707 -5.54381
LeftToes  4.7713e-008 1.46693e-008 1.32589e-009
96
root  -2.75119 40.715 -0.327025 -178.751 -78.2538 179.757
RightUpLeg  -2.78392 1.82868 0.19423
RightLeg  7.07118 -10.5546 -2.86225
RightFoot  -3.41358 -0.224501 2.89971
RightToes  -3.11842e-008 1.75238e-005 3.56266e-009
Spine  3.02263 -9.38311 -13.0058
Spine1  1.10351 -11.2087 8.89862
HEad  -12.2818 38.0836 -19.3722
LeftShoulder1  3.85319 -11.7191 -18.7689
LeftArm  66.4098 -66.0959 -112.727
LeftForeArm  80.6735 -73.5691 -27.8511
LeftHand  -3.45166 -5.91134 34.706
RightShoulder  3.08134 7.12277 22.7947
RightArm  -57.298 34.5731 6.01081
RightForeArm  163.854 55.995 164.677
RightHand  -3.05889 13.4547 -19.0379
LeftUpLeg  0.808238 3.8955 4.21792
LeftLeg  4.44248 21.7226 -0.325086
LeftFoot  -4.29502 0.376541 -5.69968
LeftToes  4.7713e-008 1.46693e-008 1.32589e-009
